<svg width="41" height="24" viewBox="0 0 41 24" fill="none" xmlns="http://www.w3.org/2000/svg">
<path d="M39.875 0.274048L40.5781 1.3053C40.0156 3.58655 39.2812 6.02405 38.375 8.6178C37.4688 11.1803 36.5 13.7584 35.4688 16.3522C34.4375 18.9459 33.3906 21.4147 32.3281 23.7584H22.0625C22.6562 21.2272 23.25 18.5709 23.8438 15.7897C24.4375 13.0084 24.9844 10.274 25.4844 7.58655C26.0156 4.89905 26.4375 2.46155 26.75 0.274048H39.875ZM18.0312 0.274048L18.6875 1.3053C18.125 3.58655 17.3906 6.02405 16.4844 8.6178C15.6094 11.1803 14.6406 13.7584 13.5781 16.3522C12.5469 18.9459 11.5 21.4147 10.4375 23.7584H0.171875C0.609375 21.8834 1.04688 19.9147 1.48438 17.8522C1.95312 15.7897 2.39062 13.7272 2.79688 11.6647C3.23438 9.60217 3.625 7.60217 3.96875 5.66467C4.3125 3.72717 4.60938 1.9303 4.85938 0.274048H18.0312Z" fill="#B0855B"/>
</svg>
